Coordinates
version=1
nRows=16
nColumns=40
inDegrees=yes

Units are S.I. units (second, meters, Newtons, ...)
Angles are in degrees.

endheader
time	pelvis_tilt	pelvis_list	pelvis_rotation	pelvis_tx	pelvis_ty	pelvis_tz	hip_flexion_r	hip_adduction_r	hip_rotation_r	knee_angle_r	knee_angle_r_beta	ankle_angle_r	subtalar_angle_r	mtp_angle_r	hip_flexion_l	hip_adduction_l	hip_rotation_l	knee_angle_l	knee_angle_l_beta	ankle_angle_l	subtalar_angle_l	mtp_angle_l	lumbar_extension	lumbar_bending	lumbar_rotation	arm_flex_r	arm_add_r	arm_rot_r	elbow_flex_r	pro_sup_r	wrist_flex_r	wrist_dev_r	arm_flex_l	arm_add_l	arm_rot_l	elbow_flex_l	pro_sup_l	wrist_flex_l	wrist_dev_l
     21.31000000	     -6.52036795	     -4.98725059	      1.09853436	      1.00919807	      0.92429786	      0.46338092	      4.99328684	      0.59243438	    -14.82414572	     26.38606842	     26.38606842	     17.89975226	      7.05503710	     -4.37402258	     26.80253311	     -6.76789644	     -2.18898839	     25.48538499	     25.48538499	      8.98003652	    -13.44419090	      5.42325367	     -9.14319712	      7.06958126	      4.22522529	     25.42339414	    -21.26433870	      1.40482241	    117.43797121	     43.74676265	      0.00000000	      0.00000000	     -8.42133576	     -7.34720778	     -2.79375099	     32.31276210	     44.97615705	      0.00000000	      0.00000000
     21.32200000	     -6.45859500	     -4.84421220	      0.94272160	      1.00896517	      0.92509438	      0.46124678	      6.05027155	     -0.11842976	    -14.22039638	     28.92703575	     28.92703575	     14.69401092	      5.22060375	    -12.51688244	     25.98742057	     -6.49733974	     -2.29647586	     25.11500303	     25.11500303	      9.01818560	    -13.77227240	      4.64554352	     -9.14487294	      6.88190879	      4.76645583	     22.46398306	    -21.58749208	     -0.99495523	    117.14509851	     43.90283105	      0.00000000	      0.00000000	     -7.60209353	     -7.57691526	     -2.52695520	     33.35438999	     45.02760836	      0.00000000	      0.00000000
     21.33400000	     -6.35586137	     -4.63161478	      0.77651419	      1.00867413	      0.92582268	      0.45905560	      7.56652122	     -1.08676674	    -13.68087522	     32.61200023	     32.61200023	     13.56653341	      4.30649789	    -13.85080354	     25.20224674	     -6.20551757	     -2.62332996	     24.91892005	     24.91892005	      9.42871600	    -13.63909578	      4.43500984	     -9.16510780	      6.68984481	      4.39564497	     20.52232252	    -21.88694274	     -0.70207473	    115.78844092	     43.93544024	      0.00000000	      0.00000000	     -6.91897401	     -7.75030995	     -2.50644374	     33.74676236	     45.04410956	      0.00000000	      0.00000000
     21.34600000	     -6.27471808	     -4.45293309	      0.62390089	      1.00829673	      0.92631683	      0.45695356	      9.30713983	     -2.00197815	    -13.01283956	     36.51640602	     36.51640602	     11.88211809	      3.14202818	    -15.68854418	     24.45816138	     -5.92834847	     -2.86273895	     24.72420784	     24.72420784	      9.78476562	    -13.63182127	      4.23412327	     -9.12673159	      6.52134097	      4.11356946	     18.48857504	    -22.08964021	     -0.74469399	    114.10611193	     43.98872430	      0.00000000	      0.00000000	     -6.25364893	     -7.96293619	     -2.52173147	     34.37540833	     45.06494718	      0.00000000	      0.00000000
     21.35800000	     -6.16034613	     -4.37957225	      0.46661095	      1.00793976	      0.92684106	      0.45500904	     10.89610560	     -2.60480897	    -12.09527769	     39.74864255	     39.74864255	      7.55167554	     -0.01241402	    -23.38244925	     23.67522223	     -5.72987513	     -2.92705204	     24.49106824	     24.49106824	      9.91923074	    -13.90196135	      3.74803183	     -9.11309178	      6.42596181	      3.85184200	     16.45432710	    -21.53915970	     -2.30953507	    111.36973449	     44.16328190	      0.00000000	      0.00000000	     -5.94736846	     -8.32805582	     -2.12076979	     36.37279130	     45.07551022	      0.00000000	      0.00000000
     21.37000000	     -5.98367571	     -4.17071292	      0.34345571	      1.00750771	      0.92712809	      0.45292909	     12.83837049	     -3.59608876	    -11.47618501	     43.97072454	     43.97072454	      5.28490890	     -0.96210146	    -24.10504662	     22.92985449	     -5.41806780	     -3.14622776	     24.46860123	     24.46860123	     10.35065195	    -13.86012022	      3.50774494	     -9.25995872	      6.28366315	      3.46438017	     14.39270019	    -21.61574717	     -2.02715449	    109.95717713	     44.19472055	      0.00000000	      0.00000000	     -5.09987972	     -8.59062639	     -2.13818156	     36.91592900	     45.09740434	      0.00000000	      0.00000000
     21.38200000	     -5.92012673	     -3.97647568	      0.19421225	      1.00690677	      0.92719128	      0.45098018	     15.03270014	     -4.45108683	    -10.64544904	     48.14866096	     48.14866096	      2.46153355	     -2.39566965	    -24.72724078	     22.30492581	     -5.11725356	     -3.32481721	     24.40402731	     24.40402731	     10.71256844	    -13.91011728	      3.29653835	     -9.24209197	      6.14789773	      3.22962421	     12.27840047	    -21.63954782	     -2.17848021	    107.82355272	     44.26252511	      0.00000000	      0.00000000	     -4.21113192	     -8.85732204	     -2.15427851	     37.72370252	     45.12066188	      0.00000000	      0.00000000
     21.39400000	     -5.85432140	     -3.98762439	      0.04500226	      1.00628980	      0.92731985	      0.44937811	     17.18771635	     -4.82722103	     -9.61164916	     51.92418972	     51.92418972	     -1.19906695	     -4.89506960	    -26.12337291	     21.67567889	     -5.02887901	     -3.32787535	     24.29662531	     24.29662531	     10.95370922	    -14.13565095	      2.88730046	     -9.16467345	      6.18893452	      3.06863508	     10.45002542	    -20.71043703	     -4.08529442	    103.84465205	     44.46857647	      0.00000000	      0.00000000	     -3.79157952	     -9.37731510	     -1.53440284	     39.84037800	     45.10964505	      0.00000000	      0.00000000
     21.40600000	     -5.73666430	     -3.78142831	     -0.09439183	      1.00559863	      0.92734285	      0.44759896	     19.40016670	     -5.54029866	     -8.74746861	     55.77994055	     55.77994055	     -4.27605600	     -6.22915348	    -25.54356147	     21.01977924	     -4.73228677	     -3.53756924	     24.26051821	     24.26051821	     11.34901745	    -14.13725963	      2.67068999	     -9.28396441	      6.07964425	      2.80268229	      8.39618255	    -20.55535683	     -4.17256985	    101.74117017	     44.53320933	      0.00000000	      0.00000000	     -2.73654788	     -9.66497542	     -1.51857901	     40.67369051	     45.13322571	      0.00000000	      0.00000000
     21.41800000	     -5.61555963	     -3.83709858	     -0.23401092	      1.00486932	      0.92752467	      0.44619795	     21.53472818	     -5.73037800	     -7.84019861	     59.22334435	     59.22334435	     -7.28570662	     -7.99981330	    -24.17368493	     20.37216346	     -4.72465335	     -3.61265813	     24.21521021	     24.21521021	     11.71086764	    -14.17043240	      2.33370658	     -9.30660734	      6.20763004	      2.77505043	      6.79706171	    -19.56660670	     -6.10972953	     97.16756098	     44.74548049	      0.00000000	      0.00000000	     -1.92996572	    -10.08741840	     -0.98830861	     42.45300938	     45.12880540	      0.00000000	      0.00000000
     21.43000000	     -5.51471303	     -3.66901644	     -0.38850508	      1.00408820	      0.92763604	      0.44479661	     23.69680797	     -6.14819394	     -6.97517644	     62.43630491	     62.43630491	     -9.99263970	     -9.45446801	    -22.80331605	     19.68289034	     -4.49152643	     -3.84438403	     24.05833084	     24.05833084	     12.07886612	    -14.09802534	      2.15805300	     -9.41497022	      6.13294468	      2.56652897	      4.83712268	    -19.19786844	     -6.35166682	     94.82823126	     44.82189246	      0.00000000	      0.00000000	     -0.81231646	    -10.43850879	     -0.95760945	     43.39052790	     45.15336075	      0.00000000	      0.00000000
     21.44200000	     -5.38852237	     -3.85030690	     -0.56786821	      1.00327158	      0.92804043	      0.44380964	     25.73205545	     -5.99745531	     -6.23209310	     65.25247059	     65.25247059	    -11.70887637	    -10.63777645	    -19.18971306	     18.99861285	     -4.66885219	     -3.99709780	     23.95375401	     23.95375401	     12.44620420	    -13.97529207	      1.83119456	     -9.51751350	      6.39095251	      2.79291853	      3.58494456	    -18.14309115	     -8.64019150	     89.29995074	     45.07127665	      0.00000000	      0.00000000	      0.19056135	    -10.80280115	     -0.39275522	     45.30870229	     45.15128386	      0.00000000	      0.00000000
     21.45400000	     -5.29215306	     -3.76779595	     -0.77130894	      1.00242487	      0.92841403	      0.44285196	     27.89502489	     -6.14997268	     -5.53492286	     68.03103826	     68.03103826	    -11.72498088	    -10.60575551	    -12.62444962	     18.22010924	     -4.55331737	     -4.27447722	     23.61542608	     23.61542608	     12.69528383	    -13.87190225	      1.49427471	     -9.64584273	      6.38565424	      2.48804675	      2.56378680	    -16.88062957	    -10.22975110	     84.99926678	     45.26090128	      0.00000000	      0.00000000	      0.78470214	    -11.67972038	      1.01051367	     47.56392424	     45.16019293	      0.00000000	      0.00000000
     21.46600000	     -5.17770474	     -3.83383718	     -0.99441345	      1.00156296	      0.92899232	      0.44216829	     29.73875587	     -6.00805214	     -4.98748695	     69.97905031	     69.97905031	    -12.59862209	    -11.84759535	    -10.22564627	     17.43318038	     -4.63254210	     -4.58633115	     23.30996040	     23.30996040	     13.02296749	    -13.60310946	      1.29980298	     -9.81891040	      6.53365751	      2.64849609	      1.36036402	    -16.07831792	    -11.62610230	     80.44234109	     45.44653894	      0.00000000	      0.00000000	      2.05053949	    -11.95749877	      1.08783687	     48.84050776	     45.22365805	      0.00000000	      0.00000000
     21.47800000	     -5.02052413	     -3.88862625	     -1.11672513	      1.00071307	      0.92961528	      0.44132941	     31.33840597	     -6.02301920	     -4.78687428	     71.41876443	     71.41876443	    -13.29184683	    -12.98840683	     -9.62842245	     16.58419305	     -4.62958625	     -4.68022102	     22.95194054	     22.95194054	     13.39176822	    -13.45675628	      1.23745125	    -10.13411685	      6.82599162	      2.19642691	     -0.17783630	    -15.65757140	    -11.57905260	     79.05292893	     45.48241202	      0.00000000	      0.00000000	      3.22129267	    -12.39629868	      0.90138933	     49.49966840	     45.26254232	      0.00000000	      0.00000000
     21.49000000	     -5.01911894	     -3.96117895	     -1.52687312	      0.99980193	      0.93042916	      0.44122398	     33.18028603	     -5.58643929	     -4.26174022	     72.59211659	     72.59211659	    -12.81328258	    -14.25441048	     -6.16705060	     15.73436509	     -4.76399224	     -5.21683246	     22.33637572	     22.33637572	     13.53787311	    -13.14774356	      1.04859440	    -10.17373095	      6.82398999	      2.85723763	     -0.35228067	    -14.57069488	    -14.07209781	     71.01451745	     45.81876660	      0.00000000	      0.00000000	      4.27017165	    -12.58609080	      1.11653469	     51.98365291	     45.32788194	      0.00000000	      0.00000000
